<?xml version="1.0" standalone="no"?>
<!DOCTYPE svg PUBLIC "-//W3C//DTD SVG 20010904//EN"
 "http://www.w3.org/TR/2001/REC-SVG-20010904/DTD/svg10.dtd">
<svg version="1.0" xmlns="http://www.w3.org/2000/svg"
 width="1080.000000pt" height="1080.000000pt" viewBox="0 0 1080.000000 1080.000000"
 preserveAspectRatio="xMidYMid meet">
<metadata>
Created by potrace 1.16, written by Peter Selinger 2001-2019
</metadata>
<g transform="translate(0.000000,1080.000000) scale(0.100000,-0.100000)"
fill="#000000" stroke="none">
<path d="M4678 9663 c-23 -4 -28 -9 -28 -31 1 -15 20 -175 44 -357 29 -222 48
-341 60 -363 23 -44 74 -66 133 -57 50 7 57 15 48 55 -6 28 -9 30 -44 24 -69
-11 -64 -27 -121 421 -39 310 -40 315 -53 314 -7 -1 -24 -4 -39 -6z"/>
<path d="M5142 9457 c-172 -55 -229 -365 -93 -510 40 -44 99 -69 171 -75 120
-8 208 36 257 130 22 44 27 69 31 150 7 156 -36 245 -143 294 -55 26 -161 31
-223 11z m191 -82 c61 -29 81 -73 85 -190 3 -89 1 -105 -20 -145 -33 -64 -76
-90 -151 -90 -122 0 -180 67 -180 208 0 98 16 153 54 191 52 53 135 63 212 26z"/>
<path d="M5715 9418 c-7 -21 -165 -761 -165 -775 0 -16 70 -29 79 -15 3 6 19
74 35 151 16 78 33 141 37 141 4 0 10 -9 14 -20 9 -29 79 -85 124 -98 147 -45
270 26 320 183 72 229 -4 385 -197 402 -50 4 -64 1 -116 -26 l-58 -31 6 44 c7
43 6 43 -25 50 -44 8 -49 8 -54 -6z m258 -109 c96 -26 138 -110 117 -230 -15
-82 -39 -137 -79 -173 -44 -42 -126 -47 -191 -14 -82 42 -107 128 -75 253 21
81 57 132 108 156 48 21 68 23 120 8z"/>
<path d="M4247 9346 c-54 -20 -104 -56 -132 -96 -93 -133 -19 -404 130 -471
50 -23 134 -24 206 -3 64 19 143 92 154 144 8 36 2 45 -36 54 -22 5 -28 2 -33
-17 -16 -66 -95 -116 -181 -117 -78 0 -123 34 -159 120 l-15 36 182 49 c100
26 189 52 199 56 14 8 15 14 4 56 -26 97 -78 169 -139 192 -39 15 -134 13
-180 -3z m170 -87 c26 -25 68 -98 60 -105 -6 -6 -289 -84 -304 -84 -18 0 -17
82 1 123 7 18 23 40 34 50 56 51 163 58 209 16z"/>
<path d="M3849 9210 c-35 -18 -36 -21 -32 -62 15 -143 39 -464 35 -472 -2 -4
-52 38 -111 95 -58 57 -143 139 -187 182 l-81 79 -41 -21 -41 -21 224 -215
224 -216 53 28 54 28 -12 141 c-7 78 -18 216 -25 308 -6 91 -15 166 -18 166
-3 -1 -22 -10 -42 -20z"/>
<path d="M6470 9191 c-103 -33 -175 -118 -214 -250 -23 -77 -20 -137 8 -197
63 -135 273 -198 380 -113 l26 20 -22 29 -21 30 -32 -20 c-85 -52 -237 10
-261 107 -8 31 2 123 15 136 7 7 70 -15 190 -66 99 -42 184 -77 190 -77 13 0
51 105 58 161 11 92 -44 178 -138 219 -57 24 -140 34 -179 21z m143 -85 c39
-16 72 -51 87 -91 13 -34 -4 -125 -23 -125 -25 1 -281 116 -285 128 -2 7 16
33 41 57 41 42 48 45 96 45 28 0 66 -6 84 -14z"/>
<path d="M6905 8808 c-55 -88 -123 -198 -152 -244 l-52 -83 33 -20 c18 -12 36
-21 39 -21 3 0 44 63 92 140 47 76 104 157 127 179 64 65 141 67 202 7 l32
-33 28 24 c35 30 29 50 -26 86 -57 36 -100 43 -150 23 -23 -9 -43 -14 -45 -13
-1 2 9 19 22 39 l25 37 -29 20 c-16 12 -33 21 -38 21 -4 -1 -53 -73 -108 -162z"/>
<path d="M3188 8849 c-84 -20 -176 -105 -198 -184 -27 -96 10 -209 100 -308
62 -68 120 -97 194 -97 31 0 73 7 93 15 64 27 139 91 162 138 20 42 29 131 14
140 -5 3 -23 2 -40 0 -31 -5 -33 -8 -33 -47 0 -51 -25 -93 -78 -129 -78 -54
-159 -46 -226 22 l-38 39 87 64 c258 187 246 177 235 197 -5 10 -33 44 -61 75
-39 43 -62 59 -102 71 -56 17 -57 17 -109 4z m85 -83 c31 -13 95 -72 86 -79
-2 -2 -62 -45 -133 -96 -138 -100 -136 -100 -156 -31 -26 92 9 165 100 204 44
19 62 19 103 2z"/>
<path d="M7495 8329 c-225 -126 -411 -232 -413 -237 -1 -4 9 -19 23 -32 19
-18 29 -21 44 -14 11 5 202 110 425 234 l405 225 -27 28 c-14 15 -31 27 -36
26 -6 -1 -195 -104 -421 -230z"/>
<path d="M2562 8509 c-80 -16 -140 -59 -263 -189 -96 -102 -116 -127 -106
-139 7 -8 135 -126 285 -263 l273 -249 63 68 c116 125 157 178 188 241 76 154
11 330 -167 457 -95 68 -184 92 -273 74z m159 -115 c64 -32 178 -143 204 -199
10 -22 20 -61 23 -88 6 -65 -37 -149 -126 -245 l-67 -74 -200 182 c-110 100
-213 194 -229 210 l-28 28 83 87 c134 140 214 163 340 99z"/>
<path d="M7955 7890 c-176 -104 -320 -193 -320 -197 1 -15 28 -63 36 -63 7 0
228 127 477 274 35 21 66 36 69 33 2 -3 -92 -122 -210 -264 l-215 -258 21 -37
c11 -21 26 -38 32 -38 9 0 364 64 600 109 53 10 69 6 45 -9 -8 -6 -131 -78
-272 -161 l-258 -151 15 -28 c8 -16 20 -32 25 -35 6 -4 97 44 203 106 106 62
254 148 329 192 l138 81 -30 50 c-16 28 -36 52 -44 54 -8 2 -162 -24 -342 -58
-180 -33 -329 -59 -331 -56 -6 5 26 45 265 330 l173 206 -31 55 c-17 30 -37
55 -43 54 -7 0 -156 -86 -332 -189z"/>
<path d="M1796 7674 c-9 -20 -15 -38 -13 -40 1 -2 66 -33 142 -70 l140 -66
-45 -20 c-63 -27 -107 -73 -130 -135 -23 -62 -25 -99 -8 -155 39 -130 260
-248 407 -217 70 14 140 81 160 151 13 46 11 126 -5 176 -7 24 -7 24 24 8 17
-9 36 -16 42 -16 11 0 47 67 39 74 -4 4 -729 346 -733 346 -1 0 -10 -16 -20
-36z m473 -274 c107 -57 150 -137 121 -225 -28 -84 -102 -133 -183 -120 -58
10 -159 59 -201 98 -79 75 -60 207 38 269 48 30 144 21 225 -22z"/>
<path d="M8310 7051 c-156 -50 -230 -132 -230 -253 0 -52 34 -153 65 -193 28
-37 91 -75 124 -75 22 0 26 4 35 41 5 23 2 28 -22 34 -47 11 -73 35 -98 88
-47 101 -25 179 66 234 30 18 57 30 61 25 4 -4 32 -90 63 -191 31 -102 58
-186 60 -189 3 -2 28 1 56 8 62 15 137 63 166 107 79 117 -4 329 -145 371 -55
17 -137 14 -201 -7z m226 -90 c57 -35 90 -138 65 -204 -12 -31 -69 -76 -101
-79 -25 -3 -24 -8 -93 220 l-25 82 61 0 c43 0 71 -6 93 -19z"/>
<path d="M1759 6887 c-63 -42 -103 -160 -80 -238 6 -21 24 -52 38 -70 l27 -32
-38 7 c-20 4 -44 10 -51 12 -16 7 -33 -63 -19 -75 7 -7 531 -141 548 -141 9 0
26 74 18 81 -4 3 -77 23 -162 44 -85 21 -175 47 -200 60 -77 37 -112 113 -90
195 13 49 46 86 85 96 18 4 98 -11 238 -45 115 -28 212 -50 214 -48 2 2 4 21
6 42 l2 38 -190 48 c-221 56 -293 62 -346 26z"/>
<path d="M8470 6435 l-285 -41 3 -39 c2 -22 5 -41 7 -43 2 -2 68 6 147 18 294
45 372 20 374 -119 1 -55 1 -56 35 -63 19 -3 38 -3 43 2 5 5 7 36 4 69 -5 70
-26 105 -82 137 -42 24 -38 34 16 34 33 0 38 3 37 23 -1 12 -4 31 -7 42 -7 21
-10 20 -292 -20z"/>
<path d="M1397 6213 c-4 -49 -9 -154 -13 -234 l-7 -147 89 -6 c138 -10 677
-37 680 -34 5 5 27 468 22 473 -2 3 -18 8 -35 11 l-30 6 -6 -74 c-4 -40 -9
-130 -13 -200 l-6 -127 -72 5 c-39 3 -104 7 -144 10 l-74 6 6 126 c4 70 9 146
12 170 l5 42 -39 0 -39 0 -6 -97 c-4 -54 -7 -125 -7 -158 0 -33 -4 -65 -8 -71
-5 -7 -47 -8 -127 -5 l-120 6 4 193 3 192 -35 0 -34 0 -6 -87z"/>
<path d="M8238 6003 c-2 -5 -5 -22 -7 -40 l-2 -31 58 -4 c32 -2 112 -5 178 -7
139 -2 182 -11 226 -48 77 -65 80 -200 5 -241 -27 -14 -59 -16 -248 -13 l-218
3 0 -40 0 -41 53 -6 c28 -4 135 -5 237 -3 164 3 189 5 220 23 49 28 80 93 80
167 0 73 -19 121 -67 164 l-37 34 52 0 52 0 0 38 0 39 -137 6 c-184 9 -441 9
-445 0z"/>
<path d="M2106 5455 c-18 -14 -18 -15 3 -58 33 -68 27 -108 -18 -132 -25 -13
-332 -75 -371 -75 -13 0 -20 14 -29 63 -24 127 -19 117 -54 110 -18 -3 -33 -7
-34 -8 -2 -1 4 -41 13 -89 9 -48 14 -89 11 -92 -2 -3 -32 -10 -66 -16 -46 -9
-60 -15 -56 -26 3 -8 8 -25 11 -39 7 -25 9 -25 67 -18 64 7 76 0 77 -40 1 -35
15 -48 47 -41 30 7 30 7 22 53 -5 26 -7 48 -5 50 2 2 88 19 191 39 103 19 200
41 215 49 31 16 66 56 76 87 10 34 -6 125 -30 160 -25 38 -43 44 -70 23z"/>
<path d="M8288 5411 c-142 -90 -194 -347 -93 -460 60 -66 170 -89 250 -52 55
25 85 63 150 191 61 118 87 144 146 144 81 1 126 -58 115 -149 -9 -75 -32
-124 -81 -170 l-43 -40 24 -30 c23 -29 24 -29 51 -13 75 44 127 160 127 283 0
116 -48 182 -150 206 -110 25 -181 -25 -263 -183 -60 -116 -91 -154 -132 -163
-42 -10 -104 12 -133 45 -36 44 -42 89 -21 168 21 74 65 131 127 163 24 12 36
24 32 32 -11 19 -47 57 -54 57 -3 0 -27 -13 -52 -29z"/>
<path d="M2044 4967 c-210 -79 -257 -104 -280 -149 -49 -94 18 -260 117 -289
21 -7 39 -15 39 -19 0 -4 -18 -14 -39 -22 -40 -16 -40 -16 -29 -52 6 -20 15
-36 19 -36 11 0 530 188 536 194 7 6 -17 76 -25 76 -4 0 -77 -25 -162 -57
-233 -85 -316 -79 -370 27 -24 47 -26 107 -4 138 21 30 62 49 254 117 91 32
168 61 172 64 11 9 -13 81 -26 80 -6 0 -97 -33 -202 -72z"/>
<path d="M8064 4766 c-54 -24 -96 -102 -96 -181 0 -26 2 -49 5 -51 2 -2 18 -1
35 2 27 6 32 11 32 36 0 63 40 118 85 118 17 0 355 -128 367 -139 3 -3 -9 -44
-28 -90 -18 -47 -33 -85 -31 -86 10 -5 59 -25 61 -25 2 0 18 38 36 85 18 47
36 85 39 85 3 0 30 -9 60 -21 30 -11 58 -16 62 -12 5 5 10 23 11 42 3 31 0 34
-47 53 -27 11 -52 21 -54 23 -2 2 4 23 13 46 18 45 15 54 -24 64 -23 5 -27 2
-41 -37 -10 -26 -22 -42 -30 -41 -8 2 -88 32 -179 68 -180 72 -229 83 -276 61z"/>
<path d="M7924 4460 c-30 -12 -91 -87 -105 -127 -11 -35 -9 -115 5 -145 7 -15
3 -16 -26 -12 -27 5 -41 1 -65 -20 -17 -14 -36 -40 -42 -56 -8 -25 -7 -31 9
-40 27 -14 50 -12 50 5 0 8 9 19 20 25 18 10 44 -2 177 -80 168 -97 213 -114
268 -99 76 21 146 130 153 236 7 97 0 113 -49 113 l-41 0 9 -32 c15 -61 8
-123 -21 -172 -40 -68 -90 -85 -137 -47 -30 24 -29 62 5 170 46 144 29 218
-59 268 -41 24 -111 30 -151 13z m126 -100 c43 -30 47 -71 16 -160 -14 -40
-26 -86 -26 -101 0 -15 -4 -30 -8 -33 -12 -7 -114 61 -136 91 -28 37 -32 111
-10 158 34 73 100 91 164 45z"/>
<path d="M2295 4407 c-152 -51 -258 -168 -258 -286 0 -144 124 -281 253 -281
134 0 308 120 340 235 32 114 -34 261 -143 317 -50 25 -139 32 -192 15z m166
-92 c16 -9 43 -34 59 -57 80 -110 37 -219 -116 -294 -116 -58 -196 -46 -250
36 -67 102 -43 191 72 271 84 57 175 74 235 44z"/>
<path d="M7605 3947 c-146 -59 -221 -202 -170 -323 13 -32 18 -35 42 -29 39 9
45 18 33 49 -35 94 29 206 133 230 52 12 130 -19 193 -77 87 -79 114 -158 78
-230 -37 -72 -88 -107 -157 -107 -43 0 -45 -1 -52 -36 -3 -20 -4 -39 0 -42 14
-15 112 -5 151 15 45 24 104 85 130 134 26 50 30 137 9 200 -22 67 -120 169
-191 201 -57 25 -157 33 -199 15z"/>
<path d="M2825 3788 c-180 -155 -223 -185 -285 -199 -50 -12 -109 19 -139 71
-24 44 -28 45 -66 28 -30 -14 -31 -30 -6 -72 33 -54 79 -80 138 -81 29 0 53
-3 53 -7 0 -4 -13 -16 -30 -28 -36 -25 -36 -27 -6 -64 l24 -29 221 187 c122
103 221 191 221 195 0 4 -12 19 -27 33 l-28 27 -70 -61z"/>
<path d="M7251 3606 c-27 -29 -29 -25 67 -139 41 -48 72 -90 68 -94 -5 -5
-226 24 -326 43 -19 3 -36 -4 -65 -29 -47 -41 -64 -34 182 -73 l173 -27 2
-179 3 -179 33 28 34 28 5 168 c3 92 9 166 13 165 4 -2 76 -83 159 -181 l152
-177 30 22 c16 12 28 28 27 34 -4 18 -508 609 -522 612 -7 1 -22 -8 -35 -22z"/>
<path d="M3177 3366 c-54 -63 -104 -119 -112 -126 -12 -10 -33 4 -122 82 -151
131 -136 122 -161 89 l-21 -29 117 -103 c64 -56 118 -105 120 -109 3 -9 -167
-205 -178 -205 -5 0 -69 51 -141 114 l-131 114 -27 -27 -26 -27 31 -27 c18
-15 95 -82 171 -149 l140 -122 35 37 c19 20 124 141 233 267 109 127 207 240
218 253 l21 22 -29 30 c-16 17 -32 30 -35 30 -4 0 -50 -51 -103 -114z"/>
</g>
</svg>
